<svg width="788" height="600" viewBox="0 0 788 600" fill="none" xmlns="http://www.w3.org/2000/svg">
<g filter="url(#filter0_d_7_4)">
<path fill-rule="evenodd" clip-rule="evenodd" d="M319.732 484.875C319.732 484.875 247.297 436.301 191.051 507.032C191.051 507.032 191.051 472.092 175.712 456.752C175.712 456.752 177.416 491.692 166.337 508.736C166.337 508.736 162.077 475.5 142.476 472.944C142.476 472.944 128.948 469.856 116.165 487.751C116.165 487.751 83.9935 525.248 65.6716 513.316C65.6716 513.316 52.0367 508.204 52.0367 479.655C52.0367 479.655 60.9846 431.081 49.0539 384.209C49.0539 384.209 32.0102 298.14 53.3148 274.704C53.3148 274.704 78.8804 223.572 187.535 232.945C187.535 232.945 167.935 256.807 138.535 243.6C138.535 243.6 118.507 269.591 135.551 302.399C135.551 302.399 200.319 314.755 217.788 235.077C217.788 235.077 290.649 236.781 354.565 194.172C354.565 194.172 432.113 128.977 531.82 157.101L499.865 137.928C499.865 137.928 413.365 127.701 330.703 178.833C330.703 178.833 273.18 220.16 217.361 212.92C217.361 212.92 208.84 175.421 198.187 166.473C198.187 166.473 202.493 198.252 193.5 215.476C193.5 215.476 71.2107 189.484 20.9315 240.616C20.9315 240.616 -7.61698 268.312 9.42677 347.567C9.42677 347.567 23.9143 390.601 19.6534 457.497C19.6534 457.497 19.2274 538.031 65.2455 546.552C65.2455 546.552 92.5154 550.387 120.212 515.447C120.212 515.447 133.421 494.569 141.091 516.3C141.091 516.3 149.187 537.605 139.387 562.317C139.387 562.317 132.142 588.947 163.248 591.397C163.248 591.397 182.848 591.719 190.092 561.465C190.092 561.465 198.615 517.577 238.24 494.995L272.755 476.779L319.732 484.875Z" fill="white"/>
<path fill-rule="evenodd" clip-rule="evenodd" d="M436.625 553.053C436.624 553.056 436.623 553.057 436.623 553.057C436.623 553.057 407.492 556.731 406.315 556.88C405.141 557.028 549.219 178.113 549.579 177.176L436.625 553.053Z" fill="white"/>
<path fill-rule="evenodd" clip-rule="evenodd" d="M568.223 537.268C564.771 537.395 541.955 538.231 541.955 538.231C541.955 538.231 556.28 235.889 556.5 238.695L568.223 537.268Z" fill="white"/>
<path fill-rule="evenodd" clip-rule="evenodd" d="M566.481 174.864L566.584 175.185L679.933 505.715L659.196 513.385L566.481 174.864Z" fill="white"/>
<path fill-rule="evenodd" clip-rule="evenodd" d="M758.775 488.291C758.969 488.685 758.969 488.687 758.969 488.687L783.965 479.597L577.48 153.049C587.299 144.247 581.207 131.524 581.207 131.524L674.948 20.7333L581.775 118.176L622.68 16.2L574.956 109.373L575.24 1.35973e-05L565.013 108.227L536.607 10.8L557.345 120.448L494.567 25.8534L551.379 129.536C551.379 129.536 542.644 138.699 550.313 130.745C542.644 138.699 548.537 150.843 548.537 150.843L269.965 568.208L269.097 569.457L293.525 567.185L294.889 564.928L552.923 155.945L553.651 154.819C558.748 159.432 566.957 157.615 569.239 156.988L758.775 488.291Z" fill="white"/>
<path fill-rule="evenodd" clip-rule="evenodd" d="M708.131 466.101C715.817 466.101 722.048 472.333 722.048 480.02C722.048 487.708 715.817 493.94 708.131 493.94C700.443 493.94 694.212 487.708 694.212 480.02C694.212 472.333 700.443 466.101 708.131 466.101Z" fill="#FFF200"/>
<path fill-rule="evenodd" clip-rule="evenodd" d="M612.968 491.099C620.656 491.099 626.887 497.331 626.887 505.019C626.887 512.707 620.656 518.939 612.968 518.939C605.281 518.939 599.049 512.707 599.049 505.019C599.049 497.331 605.281 491.099 612.968 491.099Z" fill="#00A650"/>
<path fill-rule="evenodd" clip-rule="evenodd" d="M493.661 512.972C501.349 512.972 507.58 519.204 507.58 526.891C507.58 534.579 501.349 540.811 493.661 540.811C485.975 540.811 479.743 534.579 479.743 526.891C479.743 519.204 485.975 512.972 493.661 512.972Z" fill="#00ADEF"/>
<path fill-rule="evenodd" clip-rule="evenodd" d="M366.116 529.448C373.804 529.448 380.035 535.68 380.035 543.367C380.035 551.055 373.804 557.287 366.116 557.287C358.429 557.287 352.197 551.055 352.197 543.367C352.197 535.68 358.429 529.448 366.116 529.448Z" fill="#ED1C24"/>
</g>
<defs>
<filter id="filter0_d_7_4" x="0" y="1.52588e-05" width="787.966" height="599.397" filterUnits="userSpaceOnUse" color-interpolation-filters="sRGB">
<feFlood flood-opacity="0" result="BackgroundImageFix"/>
<feColorMatrix in="SourceAlpha" type="matrix" values="0 0 0 0 0 0 0 0 0 0 0 0 0 0 0 0 0 0 127 0" result="hardAlpha"/>
<feOffset dy="4"/>
<feGaussianBlur stdDeviation="2"/>
<feComposite in2="hardAlpha" operator="out"/>
<feColorMatrix type="matrix" values="0 0 0 0 0 0 0 0 0 0 0 0 0 0 0 0 0 0 0.25 0"/>
<feBlend mode="normal" in2="BackgroundImageFix" result="effect1_dropShadow_7_4"/>
<feBlend mode="normal" in="SourceGraphic" in2="effect1_dropShadow_7_4" result="shape"/>
</filter>
</defs>
</svg>
